<svg xmlns="http://www.w3.org/2000/svg" width="15.512" height="15.512" viewBox="0 0 15.512 15.512">
  <path id="hide_source_FILL0_wght400_GRAD0_opsz24" d="M68.838-864.488,67.127-866.2a7.7,7.7,0,0,1-1.965.921,7.372,7.372,0,0,1-2.172.32,7.325,7.325,0,0,1-2.933-.592,7.6,7.6,0,0,1-2.388-1.608,7.6,7.6,0,0,1-1.608-2.388,7.324,7.324,0,0,1-.592-2.933,7.374,7.374,0,0,1,.32-2.172,7.7,7.7,0,0,1,.921-1.965L55-878.327l1.072-1.072L69.91-865.56Zm-5.847-1.974a5.963,5.963,0,0,0,1.57-.207,6.162,6.162,0,0,0,1.476-.621L57.8-875.525a6.16,6.16,0,0,0-.62,1.476,5.962,5.962,0,0,0-.207,1.57,5.8,5.8,0,0,0,1.758,4.259A5.8,5.8,0,0,0,62.991-866.462Zm6.28-1.88-1.091-1.09a6.162,6.162,0,0,0,.62-1.476,5.963,5.963,0,0,0,.207-1.57,5.8,5.8,0,0,0-1.758-4.259,5.8,5.8,0,0,0-4.259-1.758,5.963,5.963,0,0,0-1.57.207,6.162,6.162,0,0,0-1.476.62l-1.091-1.091a7.7,7.7,0,0,1,1.965-.921,7.374,7.374,0,0,1,2.172-.32,7.324,7.324,0,0,1,2.933.592,7.6,7.6,0,0,1,2.388,1.608,7.6,7.6,0,0,1,1.608,2.388,7.323,7.323,0,0,1,.592,2.933,7.374,7.374,0,0,1-.32,2.172A7.7,7.7,0,0,1,69.271-868.343ZM64.063-873.551ZM61.919-871.407Z" transform="translate(-55 880)" fill="#83879b"/>
</svg>
