<svg xmlns="http://www.w3.org/2000/svg" width="15.074" height="15.074" viewBox="0 0 15.074 15.074">
  <path id="open_in_new_24dp_FILL0_wght400_GRAD0_opsz24" d="M121.675-824.926a1.613,1.613,0,0,1-1.183-.492A1.613,1.613,0,0,1,120-826.6v-11.724a1.613,1.613,0,0,1,.492-1.183,1.613,1.613,0,0,1,1.183-.492h5.862v1.675h-5.862V-826.6H133.4v-5.862h1.675v5.862a1.613,1.613,0,0,1-.492,1.183,1.613,1.613,0,0,1-1.183.492Zm3.936-4.439-1.172-1.172,7.788-7.788h-3.015V-840h5.862v5.862H133.4v-3.015Z" transform="translate(-120 840)" fill="#83879b"/>
</svg>
