<svg id="files" xmlns="http://www.w3.org/2000/svg" width="18.643" height="19.721" viewBox="0 0 18.643 19.721">
  <path id="Path_38280" data-name="Path 38280" d="M32.522,4.076a.385.385,0,0,0-.024-.045,1.1,1.1,0,0,0-.174-.23L28.889.326a1.1,1.1,0,0,0-.3-.214l-.005,0-.007,0L28.547.092A1.1,1.1,0,0,0,28.109,0H22.068a1.1,1.1,0,0,0-1.1,1.1V4.061H15.1a1.1,1.1,0,0,0-1.1,1.1V18.623a1.1,1.1,0,0,0,1.1,1.1h9.4a1.1,1.1,0,0,0,1.1-1.1V15.66h5.953a1.1,1.1,0,0,0,1.1-1.1V4.572a1.093,1.093,0,0,0-.118-.5Zm-1.233-.226h-2.17a.328.328,0,0,1-.327-.327v-2.2ZM21.74,5.384l2.5,2.527h-2.17a.328.328,0,0,1-.327-.327Zm3.079,13.24a.328.328,0,0,1-.327.327H15.1a.328.328,0,0,1-.327-.327V5.159a.328.328,0,0,1,.327-.327H20.97V7.583a1.1,1.1,0,0,0,1.1,1.1h2.752v1.343H23.585a.385.385,0,0,0,0,.77h1.234Zm6.723-3.733H25.59v-4.1h2.618l-.886.883a.385.385,0,1,0,.544.546l1.541-1.534a.385.385,0,0,0,.113-.272s0,0,0,0,0,0,0,0a.384.384,0,0,0-.155-.308l-1.5-1.5a.385.385,0,0,0-.546.544l.88.884H25.59V8.633a1.091,1.091,0,0,0-.317-.772L21.839,4.387a1.074,1.074,0,0,0-.1-.087V1.1A.328.328,0,0,1,22.068.77h5.953V3.522a1.1,1.1,0,0,0,1.1,1.1H31.87v9.943a.328.328,0,0,1-.327.327Z" transform="translate(-13.998 0)"/>
  <path id="Path_38281" data-name="Path 38281" d="M69.633,260.77H74.7a.385.385,0,0,0,0-.77H69.633a.385.385,0,0,0,0,.77Z" transform="translate(-67.12 -249.985)"/>
  <path id="Path_38282" data-name="Path 38282" d="M69.633,313.77h4.226a.385.385,0,1,0,0-.77H69.633a.385.385,0,1,0,0,.77Z" transform="translate(-67.12 -300.944)"/>
  <circle id="Ellipse_53" data-name="Ellipse 53" cx="0.385" cy="0.385" r="0.385" transform="translate(8.271 12.056)"/>
  <path id="Path_38283" data-name="Path 38283" d="M75.785,366.667H69.633a.385.385,0,0,0,0,.77h6.152a.385.385,0,0,0,0-.77Z" transform="translate(-67.12 -352.544)"/>
  <path id="Path_38284" data-name="Path 38284" d="M75.785,420H69.633a.385.385,0,1,0,0,.77h6.152a.385.385,0,1,0,0-.77Z" transform="translate(-67.12 -403.823)"/>
</svg>
