<svg xmlns="http://www.w3.org/2000/svg" width="15.077" height="17.46" viewBox="0 0 15.077 17.46">
  <path id="file_copy_24dp_FILL0_wght400_GRAD0_opsz24" d="M93.49-905.714H84.761a1.528,1.528,0,0,1-1.121-.466,1.528,1.528,0,0,1-.466-1.121v-11.111a1.529,1.529,0,0,1,.466-1.121A1.528,1.528,0,0,1,84.761-920h5.555l4.761,4.762v7.936a1.528,1.528,0,0,1-.466,1.121A1.528,1.528,0,0,1,93.49-905.714Zm-3.968-8.73v-3.968H84.761V-907.3H93.49v-7.143Zm-7.935,11.9a1.528,1.528,0,0,1-1.121-.466A1.528,1.528,0,0,1,80-904.127v-11.111h1.587v11.111h8.729v1.587Zm3.174-15.873v0Z" transform="translate(-80 920)" fill="#83879b"/>
</svg>
