<svg xmlns="http://www.w3.org/2000/svg" width="26.607" height="26.607" viewBox="0 0 26.607 26.607">
  <g id="Icon_ionic-ios-close-circle-outline" data-name="Icon ionic-ios-close-circle-outline" transform="translate(-3.375 -3.375)">
    <path id="Path_38209" data-name="Path 38209" d="M22.307,20.861,18.936,17.49l3.371-3.371a1.022,1.022,0,0,0-1.445-1.445L17.49,16.044,14.12,12.674a1.022,1.022,0,0,0-1.445,1.445l3.371,3.371-3.371,3.371a.988.988,0,0,0,0,1.445,1.015,1.015,0,0,0,1.446,0l3.371-3.371,3.371,3.371a1.027,1.027,0,0,0,1.445,0A1.015,1.015,0,0,0,22.307,20.861Z" transform="translate(-0.812 -0.811)" fill="#873ef2"/>
    <path id="Path_38210" data-name="Path 38210" d="M16.679,5.166A11.508,11.508,0,1,1,8.537,8.537a11.437,11.437,0,0,1,8.142-3.371m0-1.791a13.3,13.3,0,1,0,13.3,13.3,13.3,13.3,0,0,0-13.3-13.3Z" fill="#873ef2"/>
  </g>
</svg>
