<svg xmlns="http://www.w3.org/2000/svg" width="50" height="45" viewBox="0 0 50 45">
  <g id="Group_173256" data-name="Group 173256" transform="translate(5.938 -6)">
    <rect id="Rectangle_1811" data-name="Rectangle 1811" width="50" height="45" rx="4" transform="translate(-5.938 6)" fill="#f2f8fb"/>
    <path id="Icon_metro-database" data-name="Icon metro-database" d="M14.071,1.928c-6.351,0-11.5,1.609-11.5,3.594V8.4c0,1.985,5.149,3.594,11.5,3.594s11.5-1.609,11.5-3.594V5.522c0-1.985-5.149-3.594-11.5-3.594Zm0,12.219c-6.351,0-11.5-1.609-11.5-3.594v4.313c0,1.985,5.149,3.594,11.5,3.594s11.5-1.609,11.5-3.594V10.553C25.571,12.538,20.422,14.147,14.071,14.147Zm0,6.469c-6.351,0-11.5-1.609-11.5-3.594v4.313c0,1.985,5.149,3.594,11.5,3.594s11.5-1.609,11.5-3.594V17.022c0,1.985-5.149,3.594-11.5,3.594Z" transform="translate(4.991 15.071)" fill="#7f8389"/>
  </g>
</svg>
