<svg xmlns="http://www.w3.org/2000/svg" width="18.053" height="18.053" viewBox="0 0 18.053 18.053">
  <path id="database_FILL0_wght400_GRAD0_opsz24" d="M129.026-821.947a15.726,15.726,0,0,1-6.406-1.166q-2.62-1.166-2.62-2.846v-10.029q0-1.655,2.645-2.833A15.619,15.619,0,0,1,129.026-840a15.619,15.619,0,0,1,6.381,1.178q2.645,1.178,2.645,2.833v10.029q0,1.68-2.62,2.846A15.726,15.726,0,0,1,129.026-821.947Zm0-12.01a16.4,16.4,0,0,0,4.488-.639q2.257-.639,2.532-1.367-.276-.727-2.52-1.379a16.062,16.062,0,0,0-4.5-.652,15.916,15.916,0,0,0-4.476.639q-2.194.639-2.545,1.392.351.752,2.545,1.379A16.212,16.212,0,0,0,129.026-833.957Zm0,4.99a19.917,19.917,0,0,0,2.031-.1,17.84,17.84,0,0,0,1.868-.288,13.649,13.649,0,0,0,1.68-.464,9.978,9.978,0,0,0,1.442-.627v-3.009a9.978,9.978,0,0,1-1.442.627,13.66,13.66,0,0,1-1.68.464,17.84,17.84,0,0,1-1.868.288,19.917,19.917,0,0,1-2.031.1q-1.053,0-2.056-.1a17.666,17.666,0,0,1-1.893-.288,13.059,13.059,0,0,1-1.667-.464,9.1,9.1,0,0,1-1.4-.627v3.009a9.1,9.1,0,0,0,1.4.627,13.049,13.049,0,0,0,1.667.464,17.666,17.666,0,0,0,1.893.288Q127.973-828.968,129.026-828.968Zm0,5.015a16.067,16.067,0,0,0,2.344-.175,16.843,16.843,0,0,0,2.194-.464,8.605,8.605,0,0,0,1.68-.652,1.554,1.554,0,0,0,.8-.74v-2.457a9.971,9.971,0,0,1-1.442.627,13.649,13.649,0,0,1-1.68.464,17.84,17.84,0,0,1-1.868.288,19.917,19.917,0,0,1-2.031.1q-1.053,0-2.056-.1a17.666,17.666,0,0,1-1.893-.288,13.049,13.049,0,0,1-1.667-.464,9.1,9.1,0,0,1-1.4-.627v2.482a1.507,1.507,0,0,0,.79.727,8.834,8.834,0,0,0,1.667.639,16.756,16.756,0,0,0,2.206.464A16.323,16.323,0,0,0,129.026-823.953Z" transform="translate(-120 840)" fill="#162848"/>
</svg>
