<svg xmlns="http://www.w3.org/2000/svg" width="19.137" height="19.137" viewBox="0 0 19.137 19.137">
  <path id="database_FILL0_wght400_GRAD0_opsz24" d="M129.568-820.863a16.671,16.671,0,0,1-6.791-1.236Q120-823.335,120-825.116v-10.631q0-1.754,2.8-3A16.557,16.557,0,0,1,129.568-840a16.557,16.557,0,0,1,6.764,1.249q2.8,1.249,2.8,3v10.631q0,1.781-2.778,3.017A16.671,16.671,0,0,1,129.568-820.863Zm0-12.731a17.386,17.386,0,0,0,4.758-.678q2.392-.678,2.684-1.449-.292-.771-2.671-1.462a17.025,17.025,0,0,0-4.771-.691,16.87,16.87,0,0,0-4.744.678q-2.326.678-2.7,1.475.372.8,2.7,1.462A17.189,17.189,0,0,0,129.568-833.594Zm0,5.289a21.127,21.127,0,0,0,2.153-.106,18.92,18.92,0,0,0,1.98-.306,14.474,14.474,0,0,0,1.781-.492,10.586,10.586,0,0,0,1.528-.664v-3.19a10.572,10.572,0,0,1-1.528.664,14.474,14.474,0,0,1-1.781.492,18.9,18.9,0,0,1-1.98.306,21.109,21.109,0,0,1-2.153.106q-1.116,0-2.179-.106a18.72,18.72,0,0,1-2.007-.306,13.838,13.838,0,0,1-1.768-.492,9.644,9.644,0,0,1-1.488-.664v3.19a9.655,9.655,0,0,0,1.488.664,13.838,13.838,0,0,0,1.768.492,18.735,18.735,0,0,0,2.007.306Q128.452-828.305,129.568-828.305Zm0,5.316a17.032,17.032,0,0,0,2.485-.186,17.853,17.853,0,0,0,2.326-.492,9.123,9.123,0,0,0,1.781-.691,1.647,1.647,0,0,0,.851-.784v-2.6a10.579,10.579,0,0,1-1.528.664,14.474,14.474,0,0,1-1.781.492,18.92,18.92,0,0,1-1.98.306,21.127,21.127,0,0,1-2.153.106q-1.116,0-2.179-.106a18.735,18.735,0,0,1-2.007-.306,13.838,13.838,0,0,1-1.768-.492,9.65,9.65,0,0,1-1.488-.664v2.631a1.6,1.6,0,0,0,.837.771,9.365,9.365,0,0,0,1.768.678,17.762,17.762,0,0,0,2.339.492A17.3,17.3,0,0,0,129.568-822.99Z" transform="translate(-120 840)" fill="#42526e"/>
</svg>
