<svg xmlns="http://www.w3.org/2000/svg" width="29.381" height="28.088" viewBox="0 0 29.381 28.088">
  <path id="inbox_customize_FILL0_wght400_GRAD0_opsz24" d="M122.957-853.39a2.847,2.847,0,0,1-2.088-.869,2.847,2.847,0,0,1-.869-2.088v-20.7a2.847,2.847,0,0,1,.869-2.088,2.847,2.847,0,0,1,2.088-.869h20.7a2.847,2.847,0,0,1,2.088.869,2.847,2.847,0,0,1,.869,2.088v8.352a8.838,8.838,0,0,0-1.441-.536,12.225,12.225,0,0,0-1.515-.314v-7.5h-20.7v13.3h6.209A4.2,4.2,0,0,0,130.274-862a4.356,4.356,0,0,0,1.737,1.035,15.023,15.023,0,0,0-.148,1.5,7.577,7.577,0,0,0,.074,1.5,7.381,7.381,0,0,1-2.495-.979,8.026,8.026,0,0,1-2.051-1.829h-4.435v4.435h9.35a14.468,14.468,0,0,0,.591,1.552,8.006,8.006,0,0,0,.813,1.4Zm0-2.957h0Zm17.777,4.435-.443-2.218q-.443-.185-.832-.388a6.428,6.428,0,0,1-.795-.5l-2.144.665-1.478-2.513,1.7-1.478a5.854,5.854,0,0,1-.074-.961,5.855,5.855,0,0,1,.074-.961l-1.7-1.478,1.478-2.513,2.144.665a6.428,6.428,0,0,1,.795-.5q.388-.2.832-.388l.443-2.217h2.957l.443,2.217q.444.185.832.388a6.428,6.428,0,0,1,.795.5l2.144-.665,1.478,2.513-1.7,1.478a5.855,5.855,0,0,1,.074.961,5.854,5.854,0,0,1-.074.961l1.7,1.478-1.478,2.513-2.144-.665a6.428,6.428,0,0,1-.795.5q-.388.2-.832.388l-.443,2.218Zm1.478-4.435a2.847,2.847,0,0,0,2.088-.869,2.847,2.847,0,0,0,.869-2.088,2.847,2.847,0,0,0-.869-2.088,2.847,2.847,0,0,0-2.088-.869,2.847,2.847,0,0,0-2.088.869,2.847,2.847,0,0,0-.868,2.088,2.847,2.847,0,0,0,.868,2.088A2.847,2.847,0,0,0,142.212-856.347Z" transform="translate(-120 880)" fill="#fff"/>
</svg>
