<svg xmlns="http://www.w3.org/2000/svg" width="16.152" height="16.172" viewBox="0 0 16.152 16.172">
  <path id="edit_square_FILL0_wght400_GRAD0_opsz24" d="M121.615-904.828a1.555,1.555,0,0,1-1.141-.474,1.555,1.555,0,0,1-.474-1.141v-11.306a1.555,1.555,0,0,1,.474-1.141,1.555,1.555,0,0,1,1.141-.474h7.208l-1.615,1.615h-5.593v11.306h11.307v-5.613l1.615-1.615v7.228a1.555,1.555,0,0,1-.474,1.141,1.555,1.555,0,0,1-1.141.474ZM127.268-912.1Zm-2.423,2.423v-3.432l7.41-7.41a1.615,1.615,0,0,1,.545-.363,1.622,1.622,0,0,1,.606-.121,1.6,1.6,0,0,1,.616.121,1.644,1.644,0,0,1,.535.363l1.131,1.151a1.814,1.814,0,0,1,.343.535,1.545,1.545,0,0,1,.121.6,1.667,1.667,0,0,1-.111.6,1.513,1.513,0,0,1-.353.535l-7.41,7.43Zm9.711-8.561-1.131-1.131Zm-8.1,6.945h1.131l4.684-4.684-.565-.565-.586-.565-4.664,4.664Zm5.249-5.249-.586-.565.586.565.565.565Z" transform="translate(-120 921)" fill="#83879b"/>
</svg>
