<svg xmlns="http://www.w3.org/2000/svg" xmlns:xlink="http://www.w3.org/1999/xlink" width="24" height="24" viewBox="0 0 24 24">
  <defs>
    <clipPath id="clip-path">
      <rect id="Rectangle_1915" data-name="Rectangle 1915" width="24" height="24" fill="#42526e"/>
    </clipPath>
  </defs>
  <g id="Group_173603" data-name="Group 173603" clip-path="url(#clip-path)">
    <path id="Path_83309" data-name="Path 83309" d="M21,4H18V2a2,2,0,0,0-2-2H8A2,2,0,0,0,6,2V4H3A3,3,0,0,0,0,7V24H24V7a3,3,0,0,0-3-3ZM8,2h8V4H8ZM3,6H21a1,1,0,0,1,1,1v5H2V7A1,1,0,0,1,3,6ZM2,22V14h9v2h2V14h9v8Z" fill="#42526e"/>
  </g>
</svg>
