<svg xmlns="http://www.w3.org/2000/svg" xmlns:xlink="http://www.w3.org/1999/xlink" width="24" height="24" viewBox="0 0 24 24">
  <defs>
    <clipPath id="clip-path">
      <rect id="Rectangle_1916" data-name="Rectangle 1916" width="24" height="24" fill="#42526e"/>
    </clipPath>
  </defs>
  <g id="Group_173604" data-name="Group 173604" clip-path="url(#clip-path)">
    <path id="Path_83310" data-name="Path 83310" d="M3,21.976a1,1,0,0,1-1-1V0H0V20.976a3,3,0,0,0,3,3H24v-2Z" fill="#42526e"/>
    <path id="Path_83311" data-name="Path 83311" d="M7,12H5v7H7Z" fill="#42526e"/>
    <path id="Path_83312" data-name="Path 83312" d="M12,10H10v9h2Z" fill="#42526e"/>
    <path id="Path_83313" data-name="Path 83313" d="M17,13H15v6h2Z" fill="#42526e"/>
    <path id="Path_83314" data-name="Path 83314" d="M22,9H20V19h2Z" fill="#42526e"/>
    <path id="Path_83315" data-name="Path 83315" d="M11,4.414l5,5,7.707-7.707L22.293.293,16,6.586l-5-5L5.293,7.293,6.707,8.707Z" fill="#42526e"/>
  </g>
</svg>
