<svg xmlns="http://www.w3.org/2000/svg" width="20" height="20" viewBox="0 0 20 20">
    <path id="work_history_FILL0_wght400_GRAD0_opsz24_1_"
          d="M81.9-863.81v0Zm0,1.9a1.834,1.834,0,0,1-1.345-.56A1.834,1.834,0,0,1,80-863.81v-10.476a1.834,1.834,0,0,1,.56-1.345,1.834,1.834,0,0,1,1.345-.56h3.81v-1.9a1.834,1.834,0,0,1,.56-1.345,1.834,1.834,0,0,1,1.345-.56h3.81a1.834,1.834,0,0,1,1.345.56,1.834,1.834,0,0,1,.56,1.345v1.9h3.81a1.834,1.834,0,0,1,1.345.56,1.834,1.834,0,0,1,.56,1.345v4.071a5.768,5.768,0,0,0-.9-.536,7.927,7.927,0,0,0-1-.393v-3.143H81.9v10.476h6.738a6.677,6.677,0,0,0,.214.976,6.587,6.587,0,0,0,.357.929Zm5.714-14.286h3.81v-1.9h-3.81ZM95.238-860a4.589,4.589,0,0,1-3.369-1.393,4.589,4.589,0,0,1-1.393-3.369,4.59,4.59,0,0,1,1.393-3.369,4.589,4.589,0,0,1,3.369-1.393,4.589,4.589,0,0,1,3.369,1.393A4.59,4.59,0,0,1,100-864.762a4.589,4.589,0,0,1-1.393,3.369A4.589,4.589,0,0,1,95.238-860Zm.476-4.952v-2.667h-.952v3.048l2.048,2.048.667-.667Z"
          transform="translate(-80 880)" fill="#42526e"/>
</svg>
