<svg xmlns="http://www.w3.org/2000/svg" width="16.015" height="16.015" viewBox="0 0 16.015 16.015">
  <path id="database_FILL0_wght400_GRAD0_opsz24" d="M128.008-823.985a13.952,13.952,0,0,1-5.683-1.034Q120-826.053,120-827.544v-8.9q0-1.468,2.347-2.513A13.856,13.856,0,0,1,128.008-840a13.856,13.856,0,0,1,5.661,1.045q2.347,1.045,2.347,2.513v8.9q0,1.49-2.324,2.525A13.952,13.952,0,0,1,128.008-823.985Zm0-10.655a14.551,14.551,0,0,0,3.982-.567q2-.567,2.247-1.212-.245-.645-2.235-1.223a14.247,14.247,0,0,0-3.993-.578,14.119,14.119,0,0,0-3.97.567q-1.946.567-2.258,1.234.311.667,2.258,1.223A14.388,14.388,0,0,0,128.008-834.639Zm0,4.426a17.677,17.677,0,0,0,1.8-.089,15.822,15.822,0,0,0,1.657-.256,12.126,12.126,0,0,0,1.49-.411,8.875,8.875,0,0,0,1.279-.556v-2.669a8.855,8.855,0,0,1-1.279.556,12.115,12.115,0,0,1-1.49.411,15.789,15.789,0,0,1-1.657.256,17.66,17.66,0,0,1-1.8.089q-.934,0-1.824-.089a15.638,15.638,0,0,1-1.679-.256,11.584,11.584,0,0,1-1.479-.411,8.076,8.076,0,0,1-1.246-.556v2.669a8.093,8.093,0,0,0,1.246.556,11.594,11.594,0,0,0,1.479.411,15.669,15.669,0,0,0,1.679.256Q127.073-830.213,128.008-830.213Zm0,4.449a14.259,14.259,0,0,0,2.08-.156,14.94,14.94,0,0,0,1.946-.411,7.642,7.642,0,0,0,1.49-.578,1.379,1.379,0,0,0,.712-.656v-2.18a8.841,8.841,0,0,1-1.279.556,12.1,12.1,0,0,1-1.49.411,15.789,15.789,0,0,1-1.657.256,17.66,17.66,0,0,1-1.8.089q-.934,0-1.824-.089a15.638,15.638,0,0,1-1.679-.256,11.574,11.574,0,0,1-1.479-.411,8.064,8.064,0,0,1-1.246-.556v2.2a1.337,1.337,0,0,0,.7.645,7.844,7.844,0,0,0,1.479.567,14.864,14.864,0,0,0,1.957.411A14.486,14.486,0,0,0,128.008-825.764Z" transform="translate(-120 840)" fill="#83879b"/>
</svg>
