<svg xmlns="http://www.w3.org/2000/svg" width="50" height="50" viewBox="0 0 50 50">
  <g id="Group_173248" data-name="Group 173248" transform="translate(-403.115 -635)">
    <g id="Rectangle_1844" data-name="Rectangle 1844" transform="translate(403.115 635)" fill="#f2f8fb" stroke="#dcecf4" stroke-width="1">
      <rect width="50" height="50" rx="4" stroke="none"/>
      <rect x="0.5" y="0.5" width="49" height="49" rx="3.5" fill="none"/>
    </g>
    <path id="inbox_customize_24dp_FILL0_wght300_GRAD0_opsz24" d="M142.158-839.706a2.083,2.083,0,0,1-1.531-.627,2.083,2.083,0,0,1-.627-1.531v-15.978a2.083,2.083,0,0,1,.627-1.531,2.083,2.083,0,0,1,1.531-.627h15.978a2.083,2.083,0,0,1,1.531.627,2.083,2.083,0,0,1,.627,1.531v6.492a5.612,5.612,0,0,0-.871-.364,7.659,7.659,0,0,0-.92-.231v-5.9a.358.358,0,0,0-.1-.264.357.357,0,0,0-.264-.1H142.158a.357.357,0,0,0-.264.1.358.358,0,0,0-.1.264V-847.1H146.8a3.359,3.359,0,0,0,.9,1.414,3.533,3.533,0,0,0,1.443.836q-.032.459-.027.916a5.792,5.792,0,0,0,.083.916,5.086,5.086,0,0,1-1.957-.78,5.657,5.657,0,0,1-1.53-1.512h-3.926v3.443a.358.358,0,0,0,.1.264.358.358,0,0,0,.264.1h7.608q.2.5.426.938a5.518,5.518,0,0,0,.548.853Zm0-1.791h0Zm13.85,2.525-.243-1.412a4.709,4.709,0,0,1-.89-.354,3.546,3.546,0,0,1-.756-.558l-1.352.468-.918-1.5,1.109-.941a3.563,3.563,0,0,1-.14-.994,3.688,3.688,0,0,1,.14-1.006l-1.109-.953.918-1.5,1.352.468a3.461,3.461,0,0,1,.762-.552,5.157,5.157,0,0,1,.884-.359l.243-1.412H157.8l.244,1.412a4.222,4.222,0,0,1,.878.353,3.987,3.987,0,0,1,.768.558l1.352-.468.918,1.5-1.109.953a3.383,3.383,0,0,1,.146,1.011,3.419,3.419,0,0,1-.157.988l1.12.941-.918,1.5-1.352-.468a3.949,3.949,0,0,1-.757.552,4.455,4.455,0,0,1-.889.359l-.244,1.412Zm.9-2.824a2.386,2.386,0,0,0,1.749-.73,2.386,2.386,0,0,0,.73-1.749,2.386,2.386,0,0,0-.73-1.749,2.386,2.386,0,0,0-1.749-.73,2.386,2.386,0,0,0-1.749.73,2.386,2.386,0,0,0-.73,1.749,2.386,2.386,0,0,0,.73,1.749A2.386,2.386,0,0,0,156.9-841.795Z" transform="translate(278.021 1509.791)" fill="#83879b"/>
  </g>
</svg>
