<svg xmlns="http://www.w3.org/2000/svg" width="20.473" height="20.473" viewBox="0 0 20.473 20.473">
  <path id="refresh_FILL0_wght400_GRAD0_opsz24" d="M170.236-779.527a9.88,9.88,0,0,1-7.261-2.975A9.88,9.88,0,0,1,160-789.764a9.879,9.879,0,0,1,2.975-7.261A9.879,9.879,0,0,1,170.236-800a10.131,10.131,0,0,1,4.222.912,9.754,9.754,0,0,1,3.455,2.607V-800h2.559v8.957h-8.957V-793.6h5.374a7.468,7.468,0,0,0-2.8-2.815,7.584,7.584,0,0,0-3.855-1.024A7.4,7.4,0,0,0,164.8-795.2a7.4,7.4,0,0,0-2.239,5.438,7.4,7.4,0,0,0,2.239,5.438,7.4,7.4,0,0,0,5.438,2.239,7.5,7.5,0,0,0,4.446-1.408,7.433,7.433,0,0,0,2.783-3.711h2.687a10.1,10.1,0,0,1-3.647,5.534A9.928,9.928,0,0,1,170.236-779.527Z" transform="translate(-160 800)" fill="#162848"/>
</svg>
