<svg xmlns="http://www.w3.org/2000/svg" width="16.854" height="15.168" viewBox="0 0 16.854 15.168">
  <path id="visibility_off_24dp_42526E_FILL0_wght400_GRAD0_opsz24" d="M51.568-839.956l-1.111-1.111a1.916,1.916,0,0,0-.517-1.685,1.841,1.841,0,0,0-1.781-.613l-1.111-1.111a3.253,3.253,0,0,1,.661-.23,3.221,3.221,0,0,1,.718-.077,3.324,3.324,0,0,1,2.442,1.005,3.325,3.325,0,0,1,1.005,2.442,3.218,3.218,0,0,1-.077.718A3.249,3.249,0,0,1,51.568-839.956Zm2.451,2.413-1.111-1.072a8.4,8.4,0,0,0,1.293-1.216,6.818,6.818,0,0,0,.967-1.5,7.53,7.53,0,0,0-2.748-3.074,7.283,7.283,0,0,0-3.993-1.14,7.717,7.717,0,0,0-1.092.077,7.38,7.38,0,0,0-1.053.23l-1.187-1.187a8.489,8.489,0,0,1,1.609-.488,8.873,8.873,0,0,1,1.724-.163,8.7,8.7,0,0,1,5.152,1.6,9.118,9.118,0,0,1,3.275,4.146,8.96,8.96,0,0,1-1.159,2.1A8.428,8.428,0,0,1,54.019-837.543Zm.383,4.711-3.217-3.179a9.2,9.2,0,0,1-1.35.316,9.173,9.173,0,0,1-1.408.105,8.7,8.7,0,0,1-5.152-1.6A9.118,9.118,0,0,1,40-841.335a9.078,9.078,0,0,1,1.015-1.886,8.818,8.818,0,0,1,1.4-1.561l-2.107-2.145L41.379-848l14.1,14.1ZM43.486-843.71a8.234,8.234,0,0,0-1.015,1.092,6.911,6.911,0,0,0-.785,1.283,7.53,7.53,0,0,0,2.748,3.074,7.283,7.283,0,0,0,3.993,1.14,5.731,5.731,0,0,0,.747-.048q.364-.048.747-.105L49.231-838a3.51,3.51,0,0,1-.4.086,2.709,2.709,0,0,1-.4.029,3.324,3.324,0,0,1-2.442-1.005,3.325,3.325,0,0,1-1.005-2.442,2.712,2.712,0,0,1,.029-.4,3.511,3.511,0,0,1,.086-.4ZM49.6-841.929ZM46.7-840.493Z" transform="translate(-40 848)" fill="#83879b"/>
</svg>
