<svg xmlns="http://www.w3.org/2000/svg" width="22.241" height="15.164" viewBox="0 0 22.241 15.164">
  <path id="visibility_24dp_42526E_FILL0_wght400_GRAD0_opsz24" d="M51.12-787.869a4.387,4.387,0,0,0,3.222-1.327,4.387,4.387,0,0,0,1.327-3.222,4.387,4.387,0,0,0-1.327-3.222,4.387,4.387,0,0,0-3.222-1.327A4.387,4.387,0,0,0,47.9-795.64a4.387,4.387,0,0,0-1.327,3.222A4.387,4.387,0,0,0,47.9-789.2,4.387,4.387,0,0,0,51.12-787.869Zm0-1.82a2.632,2.632,0,0,1-1.933-.8,2.632,2.632,0,0,1-.8-1.933,2.632,2.632,0,0,1,.8-1.933,2.632,2.632,0,0,1,1.933-.8,2.632,2.632,0,0,1,1.933.8,2.632,2.632,0,0,1,.8,1.933,2.632,2.632,0,0,1-.8,1.933A2.632,2.632,0,0,1,51.12-789.688Zm0,4.853A11.7,11.7,0,0,1,44.4-786.9a11.709,11.709,0,0,1-4.4-5.522,11.709,11.709,0,0,1,4.4-5.522A11.7,11.7,0,0,1,51.12-800a11.7,11.7,0,0,1,6.723,2.06,11.709,11.709,0,0,1,4.4,5.522,11.709,11.709,0,0,1-4.4,5.522A11.7,11.7,0,0,1,51.12-784.836ZM51.12-792.418Zm0,5.56a9.65,9.65,0,0,0,5.244-1.5,9.88,9.88,0,0,0,3.652-4.056,9.879,9.879,0,0,0-3.652-4.056,9.649,9.649,0,0,0-5.244-1.5,9.649,9.649,0,0,0-5.244,1.5,9.88,9.88,0,0,0-3.652,4.056,9.88,9.88,0,0,0,3.652,4.056A9.65,9.65,0,0,0,51.12-786.858Z" transform="translate(-40 800)" fill="#83879b"/>
</svg>
