<svg xmlns="http://www.w3.org/2000/svg" width="50" height="50" viewBox="0 0 50 50">
  <g id="Group_414" data-name="Group 414" transform="translate(-0.062 0)">
    <circle id="Ellipse_34" data-name="Ellipse 34" cx="25" cy="25" r="25" transform="translate(0.062 0)" fill="#586ab5"/>
    <path id="sitemap-solid" d="M8.224,33.9a1.9,1.9,0,0,1,1.9-1.9h2.53a1.9,1.9,0,0,1,1.9,1.9v2.53a1.9,1.9,0,0,1-1.9,1.9h-.316v1.582h6.01a2.216,2.216,0,0,1,2.214,2.214v1.265h.316a1.9,1.9,0,0,1,1.9,1.9v2.53a1.9,1.9,0,0,1-1.9,1.9h-2.53a1.9,1.9,0,0,1-1.9-1.9v-2.53a1.9,1.9,0,0,1,1.9-1.9h.316V42.122a.317.317,0,0,0-.316-.316h-6.01v1.582h.316a1.9,1.9,0,0,1,1.9,1.9v2.53a1.9,1.9,0,0,1-1.9,1.9h-2.53a1.9,1.9,0,0,1-1.9-1.9v-2.53a1.9,1.9,0,0,1,1.9-1.9h.316V41.806H4.428a.317.317,0,0,0-.316.316v1.265h.316a1.9,1.9,0,0,1,1.9,1.9v2.53a1.9,1.9,0,0,1-1.9,1.9H1.9a1.9,1.9,0,0,1-1.9-1.9v-2.53a1.9,1.9,0,0,1,1.9-1.9h.316V42.122a2.216,2.216,0,0,1,2.214-2.214h6.01V38.326h-.316a1.9,1.9,0,0,1-1.9-1.9Z" transform="translate(14.613 -17.357)" fill="#fff"/>
  </g>
</svg>
