<svg xmlns="http://www.w3.org/2000/svg" xmlns:xlink="http://www.w3.org/1999/xlink" width="24" height="24" viewBox="0 0 24 24">
  <defs>
    <clipPath id="clip-path">
      <rect id="Rectangle_1918" data-name="Rectangle 1918" width="24" height="24" fill="#42526e"/>
    </clipPath>
  </defs>
  <g id="Group_173606" data-name="Group 173606" clip-path="url(#clip-path)">
    <path id="Path_83320" data-name="Path 83320" d="M12,10a3,3,0,1,1,2.121-.879A3,3,0,0,1,12,10Zm5,4a3,3,0,0,0-3-3H10a3,3,0,0,0-3,3v2H9V14a1,1,0,0,1,1-1h4a1,1,0,0,1,1,1v2h2Zm-4.991,9.665a2.01,2.01,0,0,1-1.338-.509L6.923,20H0V3A3,3,0,0,1,3,0H21a3,3,0,0,1,3,3V20H17.147L13.3,23.18A1.94,1.94,0,0,1,12.009,23.665ZM2,18H7.654l4.325,3.645L16.429,18H22V3a1,1,0,0,0-1-1H3A1,1,0,0,0,2,3Z" fill="#42526e"/>
  </g>
</svg>
