<svg xmlns="http://www.w3.org/2000/svg" width="24" height="24" viewBox="0 0 24 24">
  <path id="database_24dp_42526E_FILL0_wght300_GRAD0_opsz24" d="M152-796a22.076,22.076,0,0,1-8.57-1.451Q140-798.9,140-801.077v-13.982q0-2.044,3.513-3.493A22.251,22.251,0,0,1,152-820a22.251,22.251,0,0,1,8.487,1.448Q164-817.1,164-815.059v13.982q0,2.175-3.43,3.626A22.076,22.076,0,0,1,152-796Zm0-16.295a23.051,23.051,0,0,0,6.216-.873q3.129-.873,3.626-1.883-.484-1.037-3.588-1.934a22.422,22.422,0,0,0-6.254-.9,22.812,22.812,0,0,0-6.232.873q-3.088.873-3.637,1.9.535,1.059,3.61,1.935A22.746,22.746,0,0,0,152-812.295Zm0,7.064a28.284,28.284,0,0,0,2.859-.141,24.487,24.487,0,0,0,2.657-.413,17.921,17.921,0,0,0,2.371-.673,12.956,12.956,0,0,0,2-.91v-5.009a13.008,13.008,0,0,1-2,.909,17.959,17.959,0,0,1-2.371.673,24.441,24.441,0,0,1-2.657.413,28.284,28.284,0,0,1-2.859.141,28.042,28.042,0,0,1-2.915-.148,25.051,25.051,0,0,1-2.678-.419,17.954,17.954,0,0,1-2.347-.666,11.5,11.5,0,0,1-1.943-.9v5.009a11.461,11.461,0,0,0,1.943.9,17.954,17.954,0,0,0,2.347.666,25,25,0,0,0,2.678.42A28.11,28.11,0,0,0,152-805.231Zm0,7.113a24.872,24.872,0,0,0,3.375-.227,21.317,21.317,0,0,0,3.013-.619,11.057,11.057,0,0,0,2.29-.911,2.742,2.742,0,0,0,1.2-1.089v-4.287a12.961,12.961,0,0,1-2,.909,17.921,17.921,0,0,1-2.371.673,24.5,24.5,0,0,1-2.657.413,28.284,28.284,0,0,1-2.859.141,28.111,28.111,0,0,1-2.915-.148,25.018,25.018,0,0,1-2.678-.42,17.954,17.954,0,0,1-2.347-.666,11.466,11.466,0,0,1-1.943-.9v4.309a2.625,2.625,0,0,0,1.193,1.085,11.491,11.491,0,0,0,2.279.893,21.284,21.284,0,0,0,3.025.619A25.106,25.106,0,0,0,152-798.118Z" transform="translate(-140 820)" fill="#42526e"/>
</svg>
