<svg xmlns="http://www.w3.org/2000/svg" width="56.111" height="56.111" viewBox="0 0 56.111 56.111">
  <path id="Icon_metro-warning" data-name="Icon metro-warning" d="M30.626,7.012,54.139,53.875H7.113L30.626,7.012Zm0-5.084c-1.209,0-2.419.815-3.336,2.447L3.34,52.108c-1.835,3.262-.274,5.931,3.469,5.931H54.444c3.743,0,5.3-2.669,3.469-5.931h0L33.962,4.375c-.917-1.631-2.127-2.447-3.336-2.447Zm3.507,45.59a3.507,3.507,0,1,1-3.507-3.507A3.507,3.507,0,0,1,34.133,47.518ZM30.626,40.5A3.507,3.507,0,0,1,27.119,37V26.477a3.507,3.507,0,1,1,7.014,0V37A3.507,3.507,0,0,1,30.626,40.5Z" transform="translate(-2.571 -1.928)" fill="#d55962"/>
</svg>
