<svg xmlns="http://www.w3.org/2000/svg" width="50" height="50" viewBox="0 0 50 50">
  <g id="Group_173248" data-name="Group 173248" transform="translate(-403.115 -635)">
    <rect id="Rectangle_1844" data-name="Rectangle 1844" width="50" height="50" rx="4" transform="translate(403.115 635)" fill="#f2f8fb"/>
    <path id="inbox_customize_FILL0_wght400_GRAD0_opsz24" d="M122.957-852.443a2.8,2.8,0,0,1-2.088-.9,3,3,0,0,1-.869-2.162v-21.433a3,3,0,0,1,.869-2.162,2.8,2.8,0,0,1,2.088-.9h20.7a2.8,2.8,0,0,1,2.088.9,3,3,0,0,1,.869,2.162v8.65a8.649,8.649,0,0,0-1.441-.555,11.858,11.858,0,0,0-1.515-.325v-7.77h-20.7v13.778h6.209a4.373,4.373,0,0,0,1.109,1.8,4.328,4.328,0,0,0,1.737,1.072q-.111.766-.148,1.55a8.124,8.124,0,0,0,.074,1.55,7.235,7.235,0,0,1-2.495-1.014,8.126,8.126,0,0,1-2.051-1.895h-4.435v4.593h9.35a15.316,15.316,0,0,0,.591,1.607,8.365,8.365,0,0,0,.813,1.455Zm0-3.062h0Zm17.777,4.593-.443-2.3q-.443-.191-.832-.4a6.4,6.4,0,0,1-.795-.517l-2.144.689-1.478-2.6,1.7-1.531a6.274,6.274,0,0,1-.074-1,6.274,6.274,0,0,1,.074-1l-1.7-1.531,1.478-2.6,2.144.689a6.4,6.4,0,0,1,.795-.517q.388-.21.832-.4l.443-2.3h2.957l.443,2.3q.444.192.832.4a6.4,6.4,0,0,1,.795.517l2.144-.689,1.478,2.6-1.7,1.531a6.274,6.274,0,0,1,.074,1,6.274,6.274,0,0,1-.074,1l1.7,1.531-1.478,2.6-2.144-.689a6.4,6.4,0,0,1-.795.517q-.388.211-.832.4l-.443,2.3Zm1.478-4.593a2.8,2.8,0,0,0,2.088-.9,3,3,0,0,0,.869-2.162,3,3,0,0,0-.869-2.162,2.8,2.8,0,0,0-2.088-.9,2.8,2.8,0,0,0-2.088.9,3,3,0,0,0-.868,2.162,3,3,0,0,0,.868,2.162A2.8,2.8,0,0,0,142.212-855.505Z" transform="translate(293.424 1525.456)" fill="#7f8389"/>
  </g>
</svg>
