<svg xmlns="http://www.w3.org/2000/svg" xmlns:xlink="http://www.w3.org/1999/xlink" width="24" height="24" viewBox="0 0 24 24">
  <defs>
    <clipPath id="clip-path">
      <rect id="Rectangle_1917" data-name="Rectangle 1917" width="24" height="24" fill="#42526e"/>
    </clipPath>
  </defs>
  <g id="Group_173605" data-name="Group 173605" clip-path="url(#clip-path)">
    <path id="Path_83316" data-name="Path 83316" d="M21,0H3A3,3,0,0,0,0,3V20H6.9l3.808,3.218a2,2,0,0,0,2.582,0L17.1,20H24V3a3,3,0,0,0-3-3Zm1,18H16.366L12,21.69,7.634,18H2V3A1,1,0,0,1,3,2H21a1,1,0,0,1,1,1Z" fill="#42526e"/>
    <path id="Path_83317" data-name="Path 83317" d="M12,5H6V7h6Z" fill="#42526e"/>
    <path id="Path_83318" data-name="Path 83318" d="M18,9H6v2H18Z" fill="#42526e"/>
    <path id="Path_83319" data-name="Path 83319" d="M18,13H6v2H18Z" fill="#42526e"/>
  </g>
</svg>
