<svg xmlns="http://www.w3.org/2000/svg" width="18.132" height="14.506" viewBox="0 0 18.132 14.506">
  <path id="folder_zip_FILL0_wght400_GRAD0_opsz24" d="M92.693-792.747v-1.813h1.813v1.813Zm0,1.813H90.879v-1.813h1.813Zm0,1.813v-1.813h1.813v1.813Zm-4.374-7.253L86.5-798.187H81.813v10.879h9.066v-1.813h1.813v1.813h3.626v-9.066H92.693v1.813H90.879v-1.813Zm-6.5,10.879a1.746,1.746,0,0,1-1.281-.533A1.746,1.746,0,0,1,80-787.307v-10.879a1.746,1.746,0,0,1,.533-1.281A1.746,1.746,0,0,1,81.813-800h5.44l1.813,1.813h7.253a1.746,1.746,0,0,1,1.281.533,1.746,1.746,0,0,1,.533,1.281v9.066a1.746,1.746,0,0,1-.533,1.281,1.746,1.746,0,0,1-1.281.533Zm0-1.813v0Z" transform="translate(-80 800)" fill="#83879b"/>
</svg>
