<svg xmlns="http://www.w3.org/2000/svg" width="21.471" height="15.083" viewBox="0 0 21.471 15.083">
  <path id="group_FILL0_wght400_GRAD0_opsz48" d="M1.9,24.033V21.75a2.829,2.829,0,0,1,.437-1.542,2.661,2.661,0,0,1,1.214-1.032,19.256,19.256,0,0,1,3.194-1.117,12.531,12.531,0,0,1,2.927-.34,12.378,12.378,0,0,1,2.915.34,19.421,19.421,0,0,1,3.182,1.117,2.734,2.734,0,0,1,1.227,1.032,2.772,2.772,0,0,1,.449,1.542v2.283Zm17,0V21.75a3.931,3.931,0,0,0-.777-2.514,5.689,5.689,0,0,0-2.04-1.591,24.087,24.087,0,0,1,3.157.571,11.129,11.129,0,0,1,2.4.862,3.759,3.759,0,0,1,1.263,1.142,2.663,2.663,0,0,1,.461,1.53v2.283Zm-9.229-7.8a3.494,3.494,0,0,1-3.643-3.643A3.494,3.494,0,0,1,9.672,8.95a3.494,3.494,0,0,1,3.643,3.643,3.494,3.494,0,0,1-3.643,3.643Zm8.744-3.643a3.494,3.494,0,0,1-3.643,3.643,5.431,5.431,0,0,1-.6-.036,2.569,2.569,0,0,1-.6-.134,3.986,3.986,0,0,0,.887-1.494,6.083,6.083,0,0,0,.3-1.979,5.653,5.653,0,0,0-.3-1.931,5.164,5.164,0,0,0-.887-1.542,5.125,5.125,0,0,1,.6-.121,4.093,4.093,0,0,1,.6-.049,3.494,3.494,0,0,1,3.643,3.643ZM3.357,22.576h12.63V21.75A1.389,1.389,0,0,0,15.756,21a1.27,1.27,0,0,0-.571-.51,16.4,16.4,0,0,0-2.939-1.044,11.745,11.745,0,0,0-2.575-.267,11.911,11.911,0,0,0-2.587.267,16.255,16.255,0,0,0-2.951,1.044,1.2,1.2,0,0,0-.559.51,1.445,1.445,0,0,0-.219.753Zm6.315-7.8a2.118,2.118,0,0,0,2.186-2.186,2.118,2.118,0,0,0-2.186-2.186,2.118,2.118,0,0,0-2.186,2.186,2.118,2.118,0,0,0,2.186,2.186ZM9.672,22.576ZM9.672,12.593Z" transform="translate(-1.9 -8.95)" fill="#42526e"/>
</svg>
