<svg xmlns="http://www.w3.org/2000/svg" width="18.051" height="18.051" viewBox="0 0 18.051 18.051">
  <path id="dataset_FILL0_wght400_GRAD0_opsz24_1_" data-name="dataset_FILL0_wght400_GRAD0_opsz24 (1)" d="M124.011-825.961h4.011v-4.011h-4.011Zm6.017,0h4.011v-4.011h-4.011Zm-6.017-6.017h4.011v-4.011h-4.011Zm6.017,0h4.011v-4.011h-4.011Zm-8.023,10.028a1.931,1.931,0,0,1-1.416-.589,1.931,1.931,0,0,1-.589-1.417v-14.039a1.931,1.931,0,0,1,.589-1.417,1.932,1.932,0,0,1,1.416-.589h14.039a1.932,1.932,0,0,1,1.416.589,1.931,1.931,0,0,1,.589,1.417v14.039a1.931,1.931,0,0,1-.589,1.417,1.931,1.931,0,0,1-1.416.589Zm0-2.006h14.039v-14.039H122.006Zm0-14.039v0Z" transform="translate(-120 840)" fill="#83879b"/>
</svg>
