<svg xmlns="http://www.w3.org/2000/svg" width="18.355" height="18.355" viewBox="0 0 18.355 18.355">
  <path id="lock_reset_24dp_5F6368_FILL0_wght400_GRAD0_opsz24" d="M89.178-861.645a8.937,8.937,0,0,1-3.579-.723,9.268,9.268,0,0,1-2.914-1.962,9.268,9.268,0,0,1-1.962-2.914A8.937,8.937,0,0,1,80-870.822h1.836a7.192,7.192,0,0,0,.574,2.857,7.368,7.368,0,0,0,1.572,2.34,7.529,7.529,0,0,0,2.34,1.583,7.071,7.071,0,0,0,2.857.585,7.086,7.086,0,0,0,5.208-2.134A7.086,7.086,0,0,0,96.52-870.8a7.086,7.086,0,0,0-2.134-5.208,7.086,7.086,0,0,0-5.208-2.134,7.064,7.064,0,0,0-3.706,1,7.392,7.392,0,0,0-2.627,2.65h2.662v1.836H80v-5.507h1.836v1.836A9.332,9.332,0,0,1,85-879a8.858,8.858,0,0,1,4.176-1,8.937,8.937,0,0,1,3.579.723,9.268,9.268,0,0,1,2.914,1.962,9.268,9.268,0,0,1,1.962,2.914,8.937,8.937,0,0,1,.723,3.579,8.937,8.937,0,0,1-.723,3.579,9.268,9.268,0,0,1-1.962,2.914,9.268,9.268,0,0,1-2.914,1.962A8.937,8.937,0,0,1,89.178-861.645Zm-1.836-5.507a.888.888,0,0,1-.654-.264.888.888,0,0,1-.264-.654v-2.753a.888.888,0,0,1,.264-.654.888.888,0,0,1,.654-.264v-.918a1.768,1.768,0,0,1,.539-1.3,1.768,1.768,0,0,1,1.3-.539,1.768,1.768,0,0,1,1.3.539,1.768,1.768,0,0,1,.539,1.3v.918a.888.888,0,0,1,.654.264.888.888,0,0,1,.264.654v2.753a.888.888,0,0,1-.264.654.888.888,0,0,1-.654.264Zm.918-4.589H90.1v-.918a.888.888,0,0,0-.264-.654.888.888,0,0,0-.654-.264.888.888,0,0,0-.654.264.888.888,0,0,0-.264.654Z" transform="translate(-80 880)" fill="#8a93a3"/>
</svg>
