<svg xmlns="http://www.w3.org/2000/svg" width="21.54" height="20.591" viewBox="0 0 21.54 20.591">
  <path id="inbox_customize_24dp_FILL0_wght400_GRAD0_opsz24" d="M122.168-860.492a2.087,2.087,0,0,1-1.531-.637A2.087,2.087,0,0,1,120-862.66v-15.173a2.087,2.087,0,0,1,.637-1.531,2.087,2.087,0,0,1,1.531-.637H137.34a2.087,2.087,0,0,1,1.531.637,2.087,2.087,0,0,1,.637,1.531v6.123a6.467,6.467,0,0,0-1.057-.393,8.956,8.956,0,0,0-1.111-.23v-5.5H122.168v9.754h4.552a3.081,3.081,0,0,0,.813,1.273,3.194,3.194,0,0,0,1.273.759,11.011,11.011,0,0,0-.108,1.1,5.554,5.554,0,0,0,.054,1.1,5.408,5.408,0,0,1-1.829-.718,5.883,5.883,0,0,1-1.5-1.341h-3.251v3.251h6.855a10.611,10.611,0,0,0,.433,1.138,5.866,5.866,0,0,0,.6,1.03Zm0-2.167h0Zm13.032,3.251-.325-1.626q-.325-.135-.61-.284a4.717,4.717,0,0,1-.583-.366l-1.571.488-1.084-1.842,1.246-1.084a4.289,4.289,0,0,1-.054-.7,4.29,4.29,0,0,1,.054-.7l-1.246-1.084,1.084-1.842,1.571.488a4.7,4.7,0,0,1,.583-.366q.285-.149.61-.284l.325-1.626h2.168l.325,1.626q.325.135.61.284a4.7,4.7,0,0,1,.583.366l1.571-.488,1.084,1.842-1.246,1.084a4.294,4.294,0,0,1,.054.7,4.292,4.292,0,0,1-.054.7l1.246,1.084-1.084,1.842-1.571-.488a4.717,4.717,0,0,1-.583.366q-.285.149-.61.284l-.325,1.626Zm1.084-3.251a2.087,2.087,0,0,0,1.531-.637,2.087,2.087,0,0,0,.637-1.531,2.087,2.087,0,0,0-.637-1.531,2.087,2.087,0,0,0-1.531-.637,2.087,2.087,0,0,0-1.531.637,2.087,2.087,0,0,0-.637,1.531,2.087,2.087,0,0,0,.637,1.531A2.087,2.087,0,0,0,136.284-862.66Z" transform="translate(-120 880)" fill="#42526e"/>
</svg>
