<svg xmlns="http://www.w3.org/2000/svg" width="20.921" height="20" viewBox="0 0 20.921 20">
  <path id="inbox_customize_FILL0_wght400_GRAD0_opsz48" d="M7.579,22.947A1.619,1.619,0,0,1,6,21.368V5.579a1.515,1.515,0,0,1,.474-1.105A1.515,1.515,0,0,1,7.579,4h15.79a1.515,1.515,0,0,1,1.105.474,1.515,1.515,0,0,1,.474,1.105v6.5q-.368-.158-.763-.289a6.175,6.175,0,0,0-.816-.211v-6H7.579V16.211h4.474A6.177,6.177,0,0,0,13.2,17.526a3.613,3.613,0,0,0,1.434.763,4.276,4.276,0,0,0-.026.816q.026.395.079.789a4.971,4.971,0,0,1-1.842-.7,4.445,4.445,0,0,1-1.421-1.408H7.579v3.579h7.474a8.483,8.483,0,0,0,.355.816,5.69,5.69,0,0,0,.461.763Zm0-1.579h0ZM21.184,24l-.132-1.263a4.853,4.853,0,0,1-1.105-.487,5.318,5.318,0,0,1-.868-.645l-1.105.526-.921-1.421,1-.789a4.6,4.6,0,0,1,0-2.184l-1-.789.921-1.447,1.105.526a6.526,6.526,0,0,1,.868-.618,4.853,4.853,0,0,1,1.105-.487l.132-1.289h1.579l.158,1.289a4.853,4.853,0,0,1,1.105.487,6.526,6.526,0,0,1,.868.618L26,15.5l.921,1.447-1,.789a4.6,4.6,0,0,1,0,2.184l1,.789L26,22.132l-1.105-.526a5.317,5.317,0,0,1-.868.645,4.853,4.853,0,0,1-1.105.487L22.763,24Zm.789-2.5a2.609,2.609,0,1,0-1.921-.763,2.6,2.6,0,0,0,1.921.763Z" transform="translate(-6 -4)" fill="#42526e"/>
</svg>
