<svg xmlns="http://www.w3.org/2000/svg" width="19.93" height="17.438" viewBox="0 0 19.93 17.438">
  <path id="Icon_awesome-sort-amount-down-alt" data-name="Icon awesome-sort-amount-down-alt" d="M9.342,4.741h2.491a.623.623,0,0,0,.623-.623V2.873a.623.623,0,0,0-.623-.623H9.342a.623.623,0,0,0-.623.623V4.118A.623.623,0,0,0,9.342,4.741Zm0,4.982h4.982a.623.623,0,0,0,.623-.623V7.855a.623.623,0,0,0-.623-.623H9.342a.623.623,0,0,0-.623.623V9.1A.623.623,0,0,0,9.342,9.724ZM19.307,17.2H9.342a.623.623,0,0,0-.623.623v1.246a.623.623,0,0,0,.623.623h9.965a.623.623,0,0,0,.623-.623V17.82A.623.623,0,0,0,19.307,17.2ZM9.342,14.706h7.474a.623.623,0,0,0,.623-.623V12.838a.623.623,0,0,0-.623-.623H9.342a.623.623,0,0,0-.623.623v1.246A.623.623,0,0,0,9.342,14.706Zm-2.491,0H4.982V2.873A.623.623,0,0,0,4.36,2.25H3.114a.623.623,0,0,0-.623.623V14.706H.623a.623.623,0,0,0-.439,1.063L3.3,19.506a.623.623,0,0,0,.88,0l3.114-3.737A.624.624,0,0,0,6.851,14.706Z" transform="translate(0 -2.25)" fill="#83879b"/>
</svg>
