<svg xmlns="http://www.w3.org/2000/svg" width="18.904" height="18.904" viewBox="0 0 18.904 18.904">
  <path id="map_FILL0_wght400_GRAD0_opsz48" d="M18.918,24.9l-6.905-2.442-4.7,1.864a.838.838,0,0,1-.88-.026A.862.862,0,0,1,6,23.513V8.862a.98.98,0,0,1,.2-.6,1.207,1.207,0,0,1,.512-.394L12.013,6l6.905,2.416,4.674-1.864a.9.9,0,0,1,.88.039.832.832,0,0,1,.433.775V22.2a.7.7,0,0,1-.2.5,1.23,1.23,0,0,1-.486.315Zm-.893-1.969V9.676L12.879,7.943V21.2Zm1.575,0L23.329,21.7V8.258L19.6,9.676ZM7.575,22.62,11.3,21.2V7.943L7.575,9.177ZM19.6,9.676v0ZM11.3,7.943v0Z" transform="translate(-6 -6)" fill="#42526e"/>
</svg>
