<svg xmlns="http://www.w3.org/2000/svg" width="56.111" height="56.111" viewBox="0 0 56.111 56.111">
  <path id="Icon_awesome-check-circle" data-name="Icon awesome-check-circle" d="M56.674,28.618A28.056,28.056,0,1,1,28.618.563,28.056,28.056,0,0,1,56.674,28.618Zm-31.3,14.855L46.188,22.658a1.81,1.81,0,0,0,0-2.56l-2.56-2.56a1.81,1.81,0,0,0-2.56,0L24.093,34.514l-7.926-7.926a1.81,1.81,0,0,0-2.56,0l-2.56,2.56a1.81,1.81,0,0,0,0,2.56L22.813,43.473a1.81,1.81,0,0,0,2.56,0Z" transform="translate(-0.563 -0.563)" fill="#4da9ad"/>
</svg>
