<svg xmlns="http://www.w3.org/2000/svg" width="15.353" height="17.546" viewBox="0 0 15.353 17.546">
  <path id="Icon_awesome-trash-alt" data-name="Icon awesome-trash-alt" d="M1.1,15.9a1.645,1.645,0,0,0,1.645,1.645h9.869A1.645,1.645,0,0,0,14.256,15.9V4.386H1.1Zm9.321-8.773a.548.548,0,0,1,1.1,0V14.8a.548.548,0,0,1-1.1,0Zm-3.29,0a.548.548,0,0,1,1.1,0V14.8a.548.548,0,0,1-1.1,0Zm-3.29,0a.548.548,0,0,1,1.1,0V14.8a.548.548,0,0,1-1.1,0ZM14.8,1.1H10.692L10.37.456A.822.822,0,0,0,9.633,0H5.716a.813.813,0,0,0-.733.456L4.661,1.1H.548A.548.548,0,0,0,0,1.645v1.1a.548.548,0,0,0,.548.548H14.8a.548.548,0,0,0,.548-.548v-1.1A.548.548,0,0,0,14.8,1.1Z" transform="translate(0 0)" fill="#db2d2d"/>
</svg>
