<svg xmlns="http://www.w3.org/2000/svg" width="26" height="26" viewBox="0 0 26 26">
  <g id="Group_173487" data-name="Group 173487" transform="translate(-755 -489)">
    <circle id="Ellipse_461" data-name="Ellipse 461" cx="13" cy="13" r="13" transform="translate(755 489)" fill="#bfbfbf"/>
    <path id="person_24dp_5F6368_FILL0_wght400_GRAD0_opsz24" d="M167.351-792.649a3.539,3.539,0,0,1-2.6-1.08,3.539,3.539,0,0,1-1.08-2.6,3.539,3.539,0,0,1,1.08-2.6,3.539,3.539,0,0,1,2.6-1.08,3.539,3.539,0,0,1,2.6,1.08,3.539,3.539,0,0,1,1.08,2.6,3.539,3.539,0,0,1-1.08,2.6A3.539,3.539,0,0,1,167.351-792.649ZM160-785.3v-2.573a2.691,2.691,0,0,1,.4-1.436,2.68,2.68,0,0,1,1.068-1,13.638,13.638,0,0,1,2.894-1.068,12.642,12.642,0,0,1,2.986-.356,12.642,12.642,0,0,1,2.986.356,13.637,13.637,0,0,1,2.894,1.068,2.679,2.679,0,0,1,1.068,1,2.691,2.691,0,0,1,.4,1.436v2.573Zm1.838-1.838h11.026v-.735a.863.863,0,0,0-.126-.459.894.894,0,0,0-.333-.322,11.981,11.981,0,0,0-2.5-.93,10.656,10.656,0,0,0-2.55-.31,10.656,10.656,0,0,0-2.55.31,11.982,11.982,0,0,0-2.5.93.894.894,0,0,0-.333.322.863.863,0,0,0-.126.459Zm5.513-7.351a1.77,1.77,0,0,0,1.3-.54,1.77,1.77,0,0,0,.54-1.3,1.77,1.77,0,0,0-.54-1.3,1.77,1.77,0,0,0-1.3-.54,1.769,1.769,0,0,0-1.3.54,1.77,1.77,0,0,0-.54,1.3,1.77,1.77,0,0,0,.54,1.3A1.769,1.769,0,0,0,167.351-794.487ZM167.351-796.325ZM167.351-787.137Z" transform="translate(600.649 1294.65)" fill="#fff"/>
  </g>
</svg>
